<?xml version="1.0" encoding="UTF-8" standalone="no"?>
<!DOCTYPE svg PUBLIC "-//W3C//DTD SVG 1.1//EN" "http://www.w3.org/Graphics/SVG/1.1/DTD/svg11.dtd">
<!-- 由 Microsoft Visio, SVG Export 生成 手机上网诊断流量页面版V1.0.1.svg 基础分析 -->
<svg xmlns="http://www.w3.org/2000/svg" xmlns:xlink="http://www.w3.org/1999/xlink" xmlns:ev="http://www.w3.org/2001/xml-events"
		xmlns:v="http://schemas.microsoft.com/visio/2003/SVGExtensions/"
		viewBox="0 0 841.89 595.276" xml:space="preserve" color-interpolation-filters="sRGB" class="st13">
	<v:documentProperties v:langID="2052" v:metric="true" v:viewMarkup="false">
		<v:userDefs>
			<v:ud v:nameU="msvSubprocessMaster" v:prompt="" v:val="VT4(Rectangle)"/>
			<v:ud v:nameU="msvNoAutoConnect" v:val="VT0(1):26"/>
		</v:userDefs>
	</v:documentProperties>

	<style type="text/css">
	<![CDATA[
		.st1 {visibility:visible}
		.st2 {fill:#000000;fill-opacity:0.4;filter:url(#filter_3.3333334922791);stroke:#000000;stroke-linecap:round;stroke-linejoin:round;stroke-opacity:0.4}
		.st3 {fill:#76c1e7;stroke:#feffff;stroke-linecap:round;stroke-linejoin:round;stroke-opacity:0.6;stroke-width:1}
		.st4 {fill:#000000;font-family:微软雅黑;font-size:0.833336em}
		.st5 {fill:none;stroke:none;stroke-linecap:round;stroke-linejoin:round;stroke-width:1}
		.st6 {fill:#d19049;font-family:微软雅黑;font-size:0.833336em;font-weight:bold}
		.st7 {font-size:1em}
		.st8 {marker-end:url(#mrkr2-51);marker-start:url(#mrkr11-49);stroke:#000000;stroke-linecap:round;stroke-linejoin:round;stroke-width:1.25}
		.st9 {fill:#000000;fill-opacity:1;stroke:#000000;stroke-opacity:1;stroke-width:0.46468401486989}
		.st10 {fill:#000000;fill-opacity:1;stroke:#000000;stroke-opacity:1;stroke-width:0.27839643652561}
		.st11 {fill:#ffffff;stroke:none;stroke-linecap:butt;stroke-width:7.2}
		.st12 {fill:#000000;font-family:黑体;font-size:0.666664em}
		.st13 {fill:none;fill-rule:evenodd;font-size:12px;overflow:visible;stroke-linecap:square;stroke-miterlimit:3}
	]]>
	</style>

	<defs id="Markers">
		<g id="lend11">
			<path d="M 0.75 -0.75 L 0.75 0.75 L -0.75 0.75 L -0.75 -0.75 L 0.75 -0.75 " style="stroke:none"/>
		</g>
		<marker id="mrkr11-49" class="st9" v:arrowType="11" v:arrowSize="0" v:setback="1.326" refX="1.326" orient="auto"
				markerUnits="strokeWidth" overflow="visible">
			<use xlink:href="#lend11" transform="scale(2.152) "/>
		</marker>
		<g id="lend2">
			<path d="M 1 1 L 0 0 L 1 -1 L 1 1 " style="stroke:none"/>
		</g>
		<marker id="mrkr2-51" class="st10" v:arrowType="2" v:arrowSize="3" v:setback="3.592" refX="-3.592" orient="auto"
				markerUnits="strokeWidth" overflow="visible">
			<use xlink:href="#lend2" transform="scale(-3.592,-3.592) "/>
		</marker>
	</defs>
	<defs id="Filters">
		<filter id="filter_3.3333334922791">
			<feGaussianBlur stdDeviation="3.3333334922791"/>
		</filter>
	</defs>
	<g v:mID="6" v:index="7" v:groupContext="foregroundPage">
		<v:userDefs>
			<v:ud v:nameU="msvThemeOrder" v:val="VT0(0):26"/>
		</v:userDefs>
		<title>基础分析</title>
		<v:pageProperties v:drawingScale="0.0393701" v:pageScale="0.0393701" v:drawingUnits="24" v:shadowOffsetX="8.50394"
				v:shadowOffsetY="-8.50394"/>
		<v:layer v:name="连接线" v:index="0"/>
		<v:layer v:name="流程图" v:index="1"/>
		<v:layer v:name="标注" v:index="2"/>
		<g id="shape1-1" v:mID="1" v:groupContext="shape" transform="translate(386.008,-493.795)">
			<title>圆形.79</title>
			<desc>开始</desc>
			<v:userDefs>
				<v:ud v:nameU="visVersion" v:val="VT0(15):26"/>
			</v:userDefs>
			<v:textBlock v:margins="rect(4,4,4,4)" v:tabSpace="42.5197"/>
			<v:textRect cx="33.5197" cy="583.937" width="67.04" height="22.6772"/>
			<g id="shadow1-2" v:groupContext="shadow" v:shadowOffsetX="7.2E-008" v:shadowOffsetY="0" v:shadowType="1"
					v:shadowScale="1.02" transform="matrix(1.02,0,0,1.02,-0.670394,-11.6787)" class="st1">
				<path d="M0 583.94 A33.5197 11.3386 0 1 1 67.04 583.94 A33.5197 11.3386 0 1 1 0 583.94 Z" class="st2"/>
			</g>
			<path d="M0 583.94 A33.5197 11.3386 0 1 1 67.04 583.94 A33.5197 11.3386 0 1 1 0 583.94 Z" class="st3"/>
			<text x="23.52" y="586.94" class="st4" v:langID="2052"><v:paragraph v:horizAlign="1"/><v:tabList/>开始</text>		</g>
		<g id="shape5-7" v:mID="5" v:groupContext="shape" transform="translate(538.583,-501.732)">
			<title>工作表.5</title>
			<rect x="0" y="572.598" width="85.0394" height="22.6772" class="st5"/>
		</g>
		<g id="shape10-9" v:mID="10" v:groupContext="shape" transform="translate(113.386,-267.024)">
			<title>框.17</title>
			<desc>用户感染手机病毒</desc>
			<v:userDefs>
				<v:ud v:nameU="visVersion" v:val="VT0(15):26"/>
			</v:userDefs>
			<v:textBlock v:margins="rect(4,4,4,4)" v:tabSpace="42.5197"/>
			<v:textRect cx="56.6929" cy="579.012" width="113.39" height="32.5276"/>
			<g id="shadow10-10" v:groupContext="shadow" v:shadowOffsetX="7.2E-008" v:shadowOffsetY="0" v:shadowType="1"
					v:shadowScale="1.02" transform="matrix(1.02,0,0,1.02,-1.13386,-11.5802)" class="st1">
				<rect x="0" y="562.748" width="113.386" height="32.5276" class="st2"/>
			</g>
			<rect x="0" y="562.748" width="113.386" height="32.5276" class="st3"/>
			<text x="16.69" y="582.01" class="st4" v:langID="2052"><v:paragraph v:horizAlign="1"/><v:tabList/>用户感染手机病毒</text>		</g>
		<g id="shape11-15" v:mID="11" v:groupContext="shape" transform="translate(232.441,-267.024)">
			<title>框.104</title>
			<desc>用户访问非法地址</desc>
			<v:userDefs>
				<v:ud v:nameU="visVersion" v:val="VT0(15):26"/>
			</v:userDefs>
			<v:textBlock v:margins="rect(4,4,4,4)" v:tabSpace="42.5197"/>
			<v:textRect cx="56.6929" cy="579.012" width="113.39" height="32.5276"/>
			<g id="shadow11-16" v:groupContext="shadow" v:shadowOffsetX="7.2E-008" v:shadowOffsetY="0" v:shadowType="1"
					v:shadowScale="1.02" transform="matrix(1.02,0,0,1.02,-1.13386,-11.5802)" class="st1">
				<rect x="0" y="562.748" width="113.386" height="32.5276" class="st2"/>
			</g>
			<rect x="0" y="562.748" width="113.386" height="32.5276" class="st3"/>
			<text x="16.69" y="582.01" class="st4" v:langID="2052"><v:paragraph v:horizAlign="1"/><v:tabList/>用户访问非法地址</text>		</g>
		<g id="shape12-21" v:mID="12" v:groupContext="shape" transform="translate(362.835,-267.024)">
			<title>框.110</title>
			<desc>用户没有产生上网记录</desc>
			<v:userDefs>
				<v:ud v:nameU="visVersion" v:val="VT0(15):26"/>
			</v:userDefs>
			<v:textBlock v:margins="rect(4,4,4,4)" v:tabSpace="42.5197"/>
			<v:textRect cx="56.6929" cy="579.012" width="113.39" height="32.5276"/>
			<g id="shadow12-22" v:groupContext="shadow" v:shadowOffsetX="7.2E-008" v:shadowOffsetY="0" v:shadowType="1"
					v:shadowScale="1.02" transform="matrix(1.02,0,0,1.02,-1.13386,-11.5802)" class="st1">
				<rect x="0" y="562.748" width="113.386" height="32.5276" class="st2"/>
			</g>
			<rect x="0" y="562.748" width="113.386" height="32.5276" class="st3"/>
			<text x="6.69" y="582.01" class="st4" v:langID="2052"><v:paragraph v:horizAlign="1"/><v:tabList/>用户没有产生上网记录</text>		</g>
		<g id="shape13-27" v:mID="13" v:groupContext="shape" transform="translate(127.559,-238.677)">
			<title>工作表.13</title>
			<desc>CON:10030002</desc>
			<v:textBlock v:margins="rect(4,4,4,4)" v:tabSpace="42.5197"/>
			<v:textRect cx="42.5197" cy="583.937" width="85.04" height="22.6772"/>
			<rect x="0" y="572.598" width="85.0394" height="22.6772" class="st5"/>
			<text x="4.72" y="586.94" class="st6" v:langID="2052"><v:paragraph v:horizAlign="1"/><v:tabList/>CON:10030002</text>		</g>
		<g id="shape14-30" v:mID="14" v:groupContext="shape" transform="translate(246.614,-238.677)">
			<title>工作表.14</title>
			<desc>CON:10030003</desc>
			<v:textBlock v:margins="rect(4,4,4,4)" v:tabSpace="42.5197"/>
			<v:textRect cx="42.5197" cy="583.937" width="85.04" height="22.6772"/>
			<rect x="0" y="572.598" width="85.0394" height="22.6772" class="st5"/>
			<text x="4.72" y="586.94" class="st6" v:langID="2052"><v:paragraph v:horizAlign="1"/><v:tabList/>CON:10030003</text>		</g>
		<g id="shape15-33" v:mID="15" v:groupContext="shape" transform="translate(377.008,-238.677)">
			<title>工作表.15</title>
			<desc>CON:10030004</desc>
			<v:textBlock v:margins="rect(4,4,4,4)" v:tabSpace="42.5197"/>
			<v:textRect cx="42.5197" cy="583.937" width="85.04" height="22.6772"/>
			<rect x="0" y="572.598" width="85.0394" height="22.6772" class="st5"/>
			<text x="4.72" y="586.94" class="st6" v:langID="2052"><v:paragraph v:horizAlign="1"/><v:tabList/>CON:10030004</text>		</g>
		<g id="shape19-36" v:mID="19" v:groupContext="shape" transform="translate(113.386,-352.063)">
			<title>菱形.73</title>
			<desc>用户是否在病毒库用户列表</desc>
			<v:userDefs>
				<v:ud v:nameU="visVersion" v:prompt="" v:val="VT0(15):26"/>
			</v:userDefs>
			<v:textBlock v:margins="rect(4,4,4,4)" v:tabSpace="42.5197"/>
			<v:textRect cx="56.6929" cy="570.508" width="113.39" height="49.5354"/>
			<g id="shadow19-37" v:groupContext="shadow" v:shadowOffsetX="7.2E-008" v:shadowOffsetY="0" v:shadowType="1"
					v:shadowScale="1.02" transform="matrix(1.02,0,0,1.02,-1.13386,-11.4102)" class="st1">
				<path d="M56.69 595.28 L113.39 570.51 L56.69 545.74 L0 570.51 L56.69 595.28 Z" class="st2"/>
			</g>
			<path d="M56.69 595.28 L113.39 570.51 L56.69 545.74 L0 570.51 L56.69 595.28 Z" class="st3"/>
			<text x="6.69" y="567.51" class="st4" v:langID="2052"><v:paragraph v:horizAlign="1"/><v:tabList/>用户是否在病毒库用户<tspan
						x="46.69" dy="1.2em" class="st7">列表</tspan></text>		</g>
		<g id="shape21-43" v:mID="21" v:groupContext="shape" v:layerMember="0" transform="translate(162.992,-352.063)">
			<title>动态连接线.75</title>
			<desc>是</desc>
			<v:textBlock v:margins="rect(4,4,4,4)" v:tabSpace="42.5197"/>
			<v:textRect cx="7.08661" cy="621.531" width="40" height="18.6536"/>
			<path d="M7.09 596.93 L7.09 597.29 L7.09 643.3" class="st8"/>
			<rect v:rectContext="textBkgnd" x="3.08655" y="616.207" width="7.99997" height="10.6501" class="st11"/>
			<text x="3.09" y="624.19" class="st12" v:langID="2052"><v:paragraph v:horizAlign="1"/><v:tabList/>是</text>		</g>
		<g id="shape22-54" v:mID="22" v:groupContext="shape" transform="translate(232.441,-352.063)">
			<title>菱形.77</title>
			<desc>用户访问IP是否在IP封堵库内</desc>
			<v:userDefs>
				<v:ud v:nameU="visVersion" v:prompt="" v:val="VT0(15):26"/>
			</v:userDefs>
			<v:textBlock v:margins="rect(4,4,4,4)" v:tabSpace="42.5197"/>
			<v:textRect cx="56.6929" cy="570.508" width="113.39" height="49.5354"/>
			<g id="shadow22-55" v:groupContext="shadow" v:shadowOffsetX="7.2E-008" v:shadowOffsetY="0" v:shadowType="1"
					v:shadowScale="1.02" transform="matrix(1.02,0,0,1.02,-1.13386,-11.4102)" class="st1">
				<path d="M56.69 595.28 L113.39 570.51 L56.69 545.74 L0 570.51 L56.69 595.28 Z" class="st2"/>
			</g>
			<path d="M56.69 595.28 L113.39 570.51 L56.69 545.74 L0 570.51 L56.69 595.28 Z" class="st3"/>
			<text x="7.64" y="567.51" class="st4" v:langID="2052"><v:paragraph v:horizAlign="1"/><v:tabList/>用户访问IP是否在IP封<tspan
						x="41.69" dy="1.2em" class="st7">堵库内</tspan></text>		</g>
		<g id="shape23-61" v:mID="23" v:groupContext="shape" transform="translate(362.835,-352.063)">
			<title>菱形.78</title>
			<desc>查询时段是否没有用户上网记录</desc>
			<v:userDefs>
				<v:ud v:nameU="visVersion" v:prompt="" v:val="VT0(15):26"/>
			</v:userDefs>
			<v:textBlock v:margins="rect(4,4,4,4)" v:tabSpace="42.5197"/>
			<v:textRect cx="56.6929" cy="570.508" width="113.39" height="49.5354"/>
			<g id="shadow23-62" v:groupContext="shadow" v:shadowOffsetX="7.2E-008" v:shadowOffsetY="0" v:shadowType="1"
					v:shadowScale="1.02" transform="matrix(1.02,0,0,1.02,-1.13386,-11.4102)" class="st1">
				<path d="M56.69 595.28 L113.39 570.51 L56.69 545.74 L0 570.51 L56.69 595.28 Z" class="st2"/>
			</g>
			<path d="M56.69 595.28 L113.39 570.51 L56.69 545.74 L0 570.51 L56.69 595.28 Z" class="st3"/>
			<text x="6.69" y="567.51" class="st4" v:langID="2052"><v:paragraph v:horizAlign="1"/><v:tabList/>查询时段是否没有用户<tspan
						x="36.69" dy="1.2em" class="st7">上网记录</tspan></text>		</g>
		<g id="shape24-68" v:mID="24" v:groupContext="shape" transform="translate(493.228,-352.063)">
			<title>菱形.79</title>
			<desc>用户终端是否在终端案例库中</desc>
			<v:userDefs>
				<v:ud v:nameU="visVersion" v:prompt="" v:val="VT0(15):26"/>
			</v:userDefs>
			<v:textBlock v:margins="rect(4,4,4,4)" v:tabSpace="42.5197"/>
			<v:textRect cx="56.6929" cy="570.508" width="113.39" height="49.5354"/>
			<g id="shadow24-69" v:groupContext="shadow" v:shadowOffsetX="7.2E-008" v:shadowOffsetY="0" v:shadowType="1"
					v:shadowScale="1.02" transform="matrix(1.02,0,0,1.02,-1.13386,-11.4102)" class="st1">
				<path d="M56.69 595.28 L113.39 570.51 L56.69 545.74 L0 570.51 L56.69 595.28 Z" class="st2"/>
			</g>
			<path d="M56.69 595.28 L113.39 570.51 L56.69 545.74 L0 570.51 L56.69 595.28 Z" class="st3"/>
			<text x="6.69" y="567.51" class="st4" v:langID="2052"><v:paragraph v:horizAlign="1"/><v:tabList/>用户终端是否在终端案<tspan
						x="41.69" dy="1.2em" class="st7">例库中</tspan></text>		</g>
		<g id="shape25-75" v:mID="25" v:groupContext="shape" transform="translate(623.622,-352.063)">
			<title>菱形.80</title>
			<desc>查询时段是否访问高流量业务</desc>
			<v:userDefs>
				<v:ud v:nameU="visVersion" v:prompt="" v:val="VT0(15):26"/>
			</v:userDefs>
			<v:textBlock v:margins="rect(4,4,4,4)" v:tabSpace="42.5197"/>
			<v:textRect cx="56.6929" cy="570.508" width="113.39" height="49.5354"/>
			<g id="shadow25-76" v:groupContext="shadow" v:shadowOffsetX="7.2E-008" v:shadowOffsetY="0" v:shadowType="1"
					v:shadowScale="1.02" transform="matrix(1.02,0,0,1.02,-1.13386,-11.4102)" class="st1">
				<path d="M56.69 595.28 L113.39 570.51 L56.69 545.74 L0 570.51 L56.69 595.28 Z" class="st2"/>
			</g>
			<path d="M56.69 595.28 L113.39 570.51 L56.69 545.74 L0 570.51 L56.69 595.28 Z" class="st3"/>
			<text x="6.69" y="567.51" class="st4" v:langID="2052"><v:paragraph v:horizAlign="1"/><v:tabList/>查询时段是否访问高流<tspan
						x="41.69" dy="1.2em" class="st7">量业务</tspan></text>		</g>
		<g id="shape26-82" v:mID="26" v:groupContext="shape" transform="translate(493.228,-267.024)">
			<title>框.81</title>
			<desc>用户终端有异常</desc>
			<v:userDefs>
				<v:ud v:nameU="visVersion" v:val="VT0(15):26"/>
			</v:userDefs>
			<v:textBlock v:margins="rect(4,4,4,4)" v:tabSpace="42.5197"/>
			<v:textRect cx="56.6929" cy="579.012" width="113.39" height="32.5276"/>
			<g id="shadow26-83" v:groupContext="shadow" v:shadowOffsetX="7.2E-008" v:shadowOffsetY="0" v:shadowType="1"
					v:shadowScale="1.02" transform="matrix(1.02,0,0,1.02,-1.13386,-11.5802)" class="st1">
				<rect x="0" y="562.748" width="113.386" height="32.5276" class="st2"/>
			</g>
			<rect x="0" y="562.748" width="113.386" height="32.5276" class="st3"/>
			<text x="21.69" y="582.01" class="st4" v:langID="2052"><v:paragraph v:horizAlign="1"/><v:tabList/>用户终端有异常</text>		</g>
		<g id="shape27-88" v:mID="27" v:groupContext="shape" transform="translate(623.622,-267.024)">
			<title>框.82</title>
			<desc>用户访问较多容易产生高流量的业务</desc>
			<v:userDefs>
				<v:ud v:nameU="visVersion" v:val="VT0(15):26"/>
			</v:userDefs>
			<v:textBlock v:margins="rect(4,4,4,4)" v:tabSpace="42.5197"/>
			<v:textRect cx="56.6929" cy="579.012" width="113.39" height="32.5276"/>
			<g id="shadow27-89" v:groupContext="shadow" v:shadowOffsetX="7.2E-008" v:shadowOffsetY="0" v:shadowType="1"
					v:shadowScale="1.02" transform="matrix(1.02,0,0,1.02,-1.13386,-11.5802)" class="st1">
				<rect x="0" y="562.748" width="113.386" height="32.5276" class="st2"/>
			</g>
			<rect x="0" y="562.748" width="113.386" height="32.5276" class="st3"/>
			<text x="6.69" y="576.01" class="st4" v:langID="2052"><v:paragraph v:horizAlign="1"/><v:tabList/>用户访问较多容易产生<tspan
						x="26.69" dy="1.2em" class="st7">高流量的业务</tspan></text>		</g>
		<g id="shape32-95" v:mID="32" v:groupContext="shape" v:layerMember="0" transform="translate(282.047,-352.063)">
			<title>动态连接线.91</title>
			<desc>是</desc>
			<v:textBlock v:margins="rect(4,4,4,4)" v:tabSpace="42.5197"/>
			<v:textRect cx="7.08661" cy="621.531" width="40" height="18.6536"/>
			<path d="M7.09 596.93 L7.09 597.29 L7.09 643.3" class="st8"/>
			<rect v:rectContext="textBkgnd" x="3.08655" y="616.207" width="7.99997" height="10.6501" class="st11"/>
			<text x="3.09" y="624.19" class="st12" v:langID="2052"><v:paragraph v:horizAlign="1"/><v:tabList/>是</text>		</g>
		<g id="shape33-104" v:mID="33" v:groupContext="shape" v:layerMember="0" transform="translate(412.441,-352.063)">
			<title>动态连接线.92</title>
			<desc>是</desc>
			<v:textBlock v:margins="rect(4,4,4,4)" v:tabSpace="42.5197"/>
			<v:textRect cx="7.08661" cy="621.531" width="40" height="18.6536"/>
			<path d="M7.09 596.93 L7.09 597.29 L7.09 643.3" class="st8"/>
			<rect v:rectContext="textBkgnd" x="3.08655" y="616.207" width="7.99997" height="10.6501" class="st11"/>
			<text x="3.09" y="624.19" class="st12" v:langID="2052"><v:paragraph v:horizAlign="1"/><v:tabList/>是</text>		</g>
		<g id="shape34-113" v:mID="34" v:groupContext="shape" v:layerMember="0" transform="translate(542.835,-352.063)">
			<title>动态连接线.93</title>
			<desc>是</desc>
			<v:textBlock v:margins="rect(4,4,4,4)" v:tabSpace="42.5197"/>
			<v:textRect cx="7.08661" cy="621.531" width="40" height="18.6536"/>
			<path d="M7.09 596.93 L7.09 597.29 L7.09 643.3" class="st8"/>
			<rect v:rectContext="textBkgnd" x="3.08655" y="616.207" width="7.99997" height="10.6501" class="st11"/>
			<text x="3.09" y="624.19" class="st12" v:langID="2052"><v:paragraph v:horizAlign="1"/><v:tabList/>是</text>		</g>
		<g id="shape35-122" v:mID="35" v:groupContext="shape" v:layerMember="0" transform="translate(673.228,-352.063)">
			<title>动态连接线.94</title>
			<desc>是</desc>
			<v:textBlock v:margins="rect(4,4,4,4)" v:tabSpace="42.5197"/>
			<v:textRect cx="7.08661" cy="621.531" width="40" height="18.6536"/>
			<path d="M7.09 596.93 L7.09 597.29 L7.09 643.3" class="st8"/>
			<rect v:rectContext="textBkgnd" x="3.08655" y="616.207" width="7.99997" height="10.6501" class="st11"/>
			<text x="3.09" y="624.19" class="st12" v:langID="2052"><v:paragraph v:horizAlign="1"/><v:tabList/>是</text>		</g>
		<g id="shape36-131" v:mID="36" v:groupContext="shape" transform="translate(507.402,-238.677)">
			<title>工作表.36</title>
			<desc>CON:10040004</desc>
			<v:textBlock v:margins="rect(4,4,4,4)" v:tabSpace="42.5197"/>
			<v:textRect cx="42.5197" cy="583.937" width="85.04" height="22.6772"/>
			<rect x="0" y="572.598" width="85.0394" height="22.6772" class="st5"/>
			<text x="4.72" y="586.94" class="st6" v:langID="2052"><v:paragraph v:horizAlign="1"/><v:tabList/>CON:10040004</text>		</g>
		<g id="shape37-134" v:mID="37" v:groupContext="shape" transform="translate(637.795,-238.677)">
			<title>工作表.37</title>
			<desc>CON:10030005</desc>
			<v:textBlock v:margins="rect(4,4,4,4)" v:tabSpace="42.5197"/>
			<v:textRect cx="42.5197" cy="583.937" width="85.04" height="22.6772"/>
			<rect x="0" y="572.598" width="85.0394" height="22.6772" class="st5"/>
			<text x="4.72" y="586.94" class="st6" v:langID="2052"><v:paragraph v:horizAlign="1"/><v:tabList/>CON:10030005</text>		</g>
		<g id="shape46-137" v:mID="46" v:groupContext="shape" v:layerMember="0" transform="translate(419.528,-493.795)">
			<title>动态连接线.46</title>
			<path d="M-0 596.93 L-0 597.29 L-0 621.96 A4.5 4.5 0 0 1 -4.5 626.46 L-125.89 626.46 A4.5 4.5 -180 0 0 -130.39 630.96
						 L-130.39 682.98" class="st8"/>
		</g>
		<g id="shape47-144" v:mID="47" v:groupContext="shape" v:layerMember="0" transform="translate(412.441,-493.795)">
			<title>动态连接线.47</title>
			<path d="M7.09 596.93 L7.09 597.29 L7.09 682.98" class="st8"/>
		</g>
		<g id="shape48-151" v:mID="48" v:groupContext="shape" v:layerMember="0" transform="translate(419.528,-493.795)">
			<title>动态连接线.48</title>
			<path d="M-0 596.93 L-0 597.29 L-0 621.96 A4.5 4.5 -180 0 0 4.5 626.46 L125.89 626.46 A4.5 4.5 0 0 1 130.39 630.96 L130.39
						 682.98" class="st8"/>
		</g>
		<g id="shape56-158" v:mID="56" v:groupContext="shape" v:layerMember="0" transform="translate(419.528,-462.614)">
			<title>动态连接线.56</title>
			<path d="M1.66 595.28 L2.02 595.28 L256.29 595.28 A4.5 4.5 0 0 1 260.79 599.78 L260.79 651.8" class="st8"/>
		</g>
		<g id="shape57-165" v:mID="57" v:groupContext="shape" v:layerMember="0" transform="translate(419.528,-493.795)">
			<title>动态连接线</title>
			<path d="M-0 596.93 L-0 597.29 L-0 621.96 A4.5 4.5 0 0 1 -4.5 626.46 L-244.95 626.46 A4.5 4.5 -180 0 0 -249.45 630.96
						 L-249.45 682.98" class="st8"/>
		</g>
	</g>
</svg>
